<svg width="212" height="169" viewBox="0 0 212 169" fill="none" xmlns="http://www.w3.org/2000/svg">
<path d="M173.5 13.6C177.3 14.6 180.9 16.1 184.2 18C187.5 19.8 190.5 22.1 193.1 24.7C195.8 27.3 198.1 30.3 200 33.4L210.3 27.2C207.9 23.2 205 19.5 201.6 16.1C198.2 12.7 194.3 9.8 190.1 7.5C185.9 5.2 181.4 3.3 176.6 2C171.8 0.7 166.7 0 161.4 0C157.5 0 153.7 0.3 150.1 1L149.4 3L145 14.9C150 13 155.6 12 161.5 12C165.6 12.1 169.7 12.6 173.5 13.6ZM201.4 76.5C199.6 80.1 197.3 83.4 194.6 86.4C191.9 89.4 188.9 92 185.5 94.2C182.2 96.3 178.5 98 174.4 99.2C170.3 100.4 166 101 161.3 101C154.6 101 148.5 99.8 143.1 97.5C137.7 95.2 133 92 129.2 88.1C126.2 85 123.7 81.5 121.8 77.5L116.5 91.7C117.8 93.4 119.1 95 120.6 96.5C125.5 101.6 131.5 105.7 138.4 108.6C145.3 111.6 153 113.1 161.3 113.1C167 113.1 172.6 112.3 177.7 110.8C182.9 109.3 187.6 107.1 191.9 104.4C196.1 101.7 200 98.3 203.4 94.6C206.8 90.8 209.7 86.6 211.9 82.2L201.4 76.5ZM130.9 1L97 92.7L63.1 1.1H50.3L91.4 112.1H102.7L143.8 1.1L130.9 1Z" fill="black"/>
<path d="M71.3 75C70.9 77.6 70.4 79.9 69.6 82.1C68.2 86.2 66.2 89.7 63.6 92.5C61.1 95.2 58.1 97.3 54.5 98.7C50.8 100.2 46.5 101 41.9 101C37.2 101 32.9 100.2 29.2 98.8C25.6 97.3 22.6 95.3 20.1 92.5C17.6 89.7 15.6 86.2 14.1 82.1C12.6 77.8 11.9 72.8 11.9 67.1V1H0V67.1C0 74.1 1 80.4 2.9 86C4.9 91.7 7.7 96.6 11.3 100.6C15 104.7 19.5 107.8 24.8 109.9C29.9 112 35.7 113 42 113C48.2 113 53.9 112 59.1 109.9C64.4 107.8 69 104.6 72.6 100.6C74.7 98.3 76.5 95.8 78 92.9L71.3 75Z" fill="#0000FF"/>
<path d="M28.8 150.1H36.1C40.3 150.1 43 153.1 43 156.8C43 160.5 40.2 163.5 36 163.5H32.3V168.5H28.7L28.8 150.1ZM32.4 153.3V160.2H35.9C38 160.2 39.4 158.8 39.4 156.8C39.4 154.8 38 153.4 35.9 153.4H32.4V153.3Z" fill="black"/>
<path d="M52.8 150.1H56.3L63.3 168.6H59.6L58.4 165.2H50.7L49.5 168.6H45.8L52.8 150.1ZM51.8 161.9H57.1L54.4 154.6L51.8 161.9Z" fill="black"/>
<path d="M67.8 150.1H75.3C79.6 150.1 82.1 152.8 82.1 156.4C82.1 158.7 80.9 160.8 78.9 161.9L82.5 168.7H78.5L75.5 162.9H71.3V168.7H67.7L67.8 150.1ZM71.4 153.3V159.4H75C77.4 159.4 78.4 157.9 78.4 156.3C78.4 154.5 77.2 153.3 75 153.3H71.4Z" fill="black"/>
<path d="M91.3 153.3H86.2V150.1H99.9V153.4H94.8V168.6H91.3V153.3Z" fill="black"/>
<path d="M105.2 150.1H109L117.1 162.7V150.1H120.5V168.6H117L108.6 155.6V168.6H105.1L105.2 150.1Z" fill="black"/>
<path d="M127.4 150.1H139.8V153.5H131V157.7H139.9V161.1H131V165.3H139.9V168.7H127.5V150.1H127.4Z" fill="black"/>
<path d="M146.4 150.1H153.9C158.2 150.1 160.7 152.8 160.7 156.4C160.7 158.7 159.5 160.8 157.5 161.9L161.1 168.7H157.1L154.1 162.9H150V168.7H146.4V150.1ZM150 153.3V159.4H153.6C156 159.4 157 157.9 157 156.3C157 154.5 155.8 153.3 153.6 153.3H150Z" fill="black"/>
<path d="M165.6 165L168.7 162.5C169.9 164.4 171.6 165.4 173.8 165.4C175.8 165.4 176.8 164.4 176.8 163.1C176.8 161.4 175 161 172.5 160.4C169.7 159.8 166.7 158.9 166.7 155.2C166.7 152.2 169.4 149.7 173.3 149.7C176.6 149.7 178.6 150.8 180.5 152.9L177.6 155.2C176.6 153.8 175.4 152.9 173.3 152.9C171.3 152.9 170.4 153.9 170.4 155.1C170.4 156.6 172.2 156.9 174.6 157.4C177.4 158 180.7 158.9 180.7 162.9C180.7 166.1 178 168.7 173.9 168.7C169.8 168.8 167.4 167.2 165.6 165Z" fill="black"/>
</svg>
